<svg id="svg" version="1.1" xmlns="http://www.w3.org/2000/svg" xmlns:xlink="http://www.w3.org/1999/xlink" width="400" height="400" viewBox="0, 0, 400,400"><g id="svgg"><path id="path0" d="M0.000 200.000 L 0.000 400.000 200.000 400.000 L 400.000 400.000 400.000 200.000 L 400.000 0.000 200.000 0.000 L 0.000 0.000 0.000 200.000 M399.000 200.200 L 399.000 399.000 292.400 399.000 L 185.800 399.000 185.699 307.482 C 185.602 219.464,185.570 215.935,184.867 215.180 C 184.151 214.411,183.493 214.397,153.568 214.497 L 123.000 214.600 122.800 306.800 L 122.600 399.000 62.200 399.103 C 5.769 399.199,1.767 399.161,1.300 398.526 C 0.773 397.810,0.517 3.202,1.043 1.832 C 1.264 1.256,19.069 1.208,200.143 1.300 L 399.000 1.400 399.000 200.200 M30.985 31.300 C 30.881 31.575,30.841 107.670,30.898 200.400 L 31.000 369.000 61.800 369.000 L 92.600 369.000 92.701 277.302 L 92.802 185.603 139.101 185.502 L 185.400 185.400 185.600 139.600 L 185.800 93.800 245.557 93.699 C 289.474 93.624,305.459 93.717,305.859 94.049 C 306.314 94.426,306.386 104.292,306.301 154.350 L 306.200 214.200 260.400 214.400 L 214.600 214.600 214.498 245.898 L 214.395 277.197 260.298 277.298 L 306.200 277.400 306.200 292.200 L 306.200 307.000 260.400 307.200 L 214.600 307.400 214.600 338.200 L 214.600 369.000 291.800 369.000 L 369.000 369.000 369.000 200.000 L 369.000 31.000 200.088 30.900 C 65.167 30.819,31.137 30.900,30.985 31.300 M214.584 123.300 C 214.479 123.575,214.440 137.660,214.497 154.600 L 214.600 185.400 245.900 185.502 L 277.200 185.605 277.200 154.864 C 277.200 125.592,277.165 124.092,276.469 123.462 C 275.500 122.586,214.917 122.427,214.584 123.300 " stroke="none" fill="#fcfcfc" fill-rule="evenodd"></path><path id="path1" d="M1.043 1.832 C 0.517 3.202,0.773 397.810,1.300 398.526 C 1.767 399.161,5.769 399.199,62.200 399.103 L 122.600 399.000 122.800 306.800 L 123.000 214.600 153.568 214.497 C 183.493 214.397,184.151 214.411,184.867 215.180 C 185.570 215.935,185.602 219.464,185.699 307.482 L 185.800 399.000 292.400 399.000 L 399.000 399.000 399.000 200.200 L 399.000 1.400 200.143 1.300 C 19.069 1.208,1.264 1.256,1.043 1.832 M369.000 200.000 L 369.000 369.000 291.800 369.000 L 214.600 369.000 214.600 338.200 L 214.600 307.400 260.400 307.200 L 306.200 307.000 306.200 292.200 L 306.200 277.400 260.298 277.298 L 214.395 277.197 214.498 245.898 L 214.600 214.600 260.400 214.400 L 306.200 214.200 306.301 154.350 C 306.386 104.292,306.314 94.426,305.859 94.049 C 305.459 93.717,289.474 93.624,245.557 93.699 L 185.800 93.800 185.600 139.600 L 185.400 185.400 139.101 185.502 L 92.802 185.603 92.701 277.302 L 92.600 369.000 61.800 369.000 L 31.000 369.000 30.898 200.400 C 30.841 107.670,30.881 31.575,30.985 31.300 C 31.137 30.900,65.167 30.819,200.088 30.900 L 369.000 31.000 369.000 200.000 M276.469 123.462 C 277.165 124.092,277.200 125.592,277.200 154.864 L 277.200 185.605 245.900 185.502 L 214.600 185.400 214.497 154.600 C 214.440 137.660,214.479 123.575,214.584 123.300 C 214.917 122.427,275.500 122.586,276.469 123.462 " stroke="none" fill="#0494d3" fill-rule="evenodd"></path></g></svg>